# MagicaVoxel @ Ephtracy

# group
g Glove2

# material
mtllib Glove2.mtl
usemtl palette

# normals
vn -1 0 0
vn 1 0 0
vn 0 0 1
vn 0 0 -1
vn 0 -1 0
vn 0 1 0

# texcoords
vt 0.841797 0.5
vt 0.845703 0.5
vt 0.982422 0.5

# verts
v -8 28 3
v -8 28 -4
v -8 40 3
v -8 40 -4
v -7 28 5
v -7 28 3
v -7 28 -4
v -7 28 -6
v -7 40 5
v -7 40 3
v -7 40 -4
v -7 40 -6
v -6 28 6
v -6 28 5
v -6 28 -6
v -6 28 -7
v -6 40 6
v -6 40 5
v -6 40 -6
v -6 40 -7
v -5 28 7
v -5 28 6
v -5 28 -7
v -5 28 -8
v -5 40 7
v -5 40 6
v -5 40 -7
v -5 40 -8
v -4 28 8
v -4 28 7
v -4 28 -8
v -4 28 -9
v -4 40 8
v -4 40 7
v -4 40 -8
v -4 40 -9
v -2 28 9
v -2 28 8
v -2 28 -9
v -2 28 -10
v -2 40 9
v -2 40 8
v -2 40 -9
v -2 40 -10
v 2 31 -0
v 2 31 -1
v 2 39 -0
v 2 39 -1
v 12 39 4
v 12 39 1
v 12 40 4
v 12 40 1
v 13 39 1
v 13 39 -1
v 13 40 1
v 13 40 -1
v 14 39 -1
v 14 39 -4
v 14 40 -1
v 14 40 -4
v 16 39 2
v 16 39 -1
v 16 40 2
v 16 40 -1
v 17 39 4
v 17 39 2
v 17 40 4
v 17 40 2
v 18 39 2
v 18 39 -0
v 18 40 2
v 18 40 -0
v 19 39 -0
v 19 39 -4
v 19 40 -0
v 19 40 -4
v 1 31 -0
v 1 31 -1
v 1 39 -0
v 1 39 -1
v 5 28 9
v 5 28 8
v 5 28 -9
v 5 28 -10
v 5 40 9
v 5 40 8
v 5 40 -9
v 5 40 -10
v 7 28 8
v 7 28 7
v 7 28 -8
v 7 28 -9
v 7 40 8
v 7 40 7
v 7 40 -8
v 7 40 -9
v 8 28 7
v 8 28 6
v 8 28 -7
v 8 28 -8
v 8 40 7
v 8 40 6
v 8 40 -7
v 8 40 -8
v 9 28 6
v 9 28 5
v 9 28 -6
v 9 28 -7
v 9 40 6
v 9 40 5
v 9 40 -6
v 9 40 -7
v 10 28 5
v 10 28 3
v 10 28 -4
v 10 28 -6
v 10 40 5
v 10 40 3
v 10 40 -4
v 10 40 -6
v 11 28 3
v 11 28 -4
v 11 39 1
v 11 39 -1
v 11 40 3
v 11 40 1
v 11 40 -1
v 11 40 -4
v 12 39 1
v 12 39 -1
v 12 40 1
v 12 40 -1
v 13 39 4
v 13 39 2
v 13 40 4
v 13 40 2
v 14 39 2
v 14 39 -1
v 14 40 2
v 14 40 -1
v 15 39 -3
v 15 39 -4
v 15 40 -3
v 15 40 -4
v 16 39 -1
v 16 39 -3
v 16 40 -1
v 16 40 -3
v 17 39 2
v 17 39 -1
v 17 40 2
v 17 40 -1
v 18 39 4
v 18 39 3
v 18 40 4
v 18 40 3
v 19 39 3
v 19 39 -0
v 19 40 3
v 19 40 -0
v 20 39 -0
v 20 39 -4
v 20 40 -0
v 20 40 -4
v -2 28 9
v -2 40 9
v 5 28 9
v 5 40 9
v -4 28 8
v -4 40 8
v -2 28 8
v -2 40 8
v 5 28 8
v 5 40 8
v 7 28 8
v 7 40 8
v -5 28 7
v -5 40 7
v -4 28 7
v -4 40 7
v 7 28 7
v 7 40 7
v 8 28 7
v 8 40 7
v -6 28 6
v -6 40 6
v -5 28 6
v -5 40 6
v 8 28 6
v 8 40 6
v 9 28 6
v 9 40 6
v -7 28 5
v -7 40 5
v -6 28 5
v -6 40 5
v 9 28 5
v 9 40 5
v 10 28 5
v 10 40 5
v 12 39 4
v 12 40 4
v 13 39 4
v 13 40 4
v 17 39 4
v 17 40 4
v 18 39 4
v 18 40 4
v -8 28 3
v -8 40 3
v -7 28 3
v -7 40 3
v 10 28 3
v 10 40 3
v 11 28 3
v 11 40 3
v 18 39 3
v 18 40 3
v 19 39 3
v 19 40 3
v 13 39 2
v 13 40 2
v 14 39 2
v 14 40 2
v 16 39 2
v 16 40 2
v 17 39 2
v 17 40 2
v 11 39 1
v 11 40 1
v 12 39 1
v 12 40 1
v 19 39 -0
v 19 40 -0
v 20 39 -0
v 20 40 -0
v 1 31 -1
v 1 39 -1
v 2 31 -1
v 2 39 -1
v 14 39 -1
v 14 40 -1
v 16 39 -1
v 16 40 -1
v 17 39 2
v 17 40 2
v 18 39 2
v 18 40 2
v 12 39 1
v 12 40 1
v 13 39 1
v 13 40 1
v 1 31 -0
v 1 39 -0
v 2 31 -0
v 2 39 -0
v 18 39 -0
v 18 40 -0
v 19 39 -0
v 19 40 -0
v 11 39 -1
v 11 40 -1
v 12 39 -1
v 12 40 -1
v 13 39 -1
v 13 40 -1
v 14 39 -1
v 14 40 -1
v 16 39 -1
v 16 40 -1
v 17 39 -1
v 17 40 -1
v 15 39 -3
v 15 40 -3
v 16 39 -3
v 16 40 -3
v -8 28 -4
v -8 40 -4
v -7 28 -4
v -7 40 -4
v 10 28 -4
v 10 40 -4
v 11 28 -4
v 11 40 -4
v 14 39 -4
v 14 40 -4
v 15 39 -4
v 15 40 -4
v 19 39 -4
v 19 40 -4
v 20 39 -4
v 20 40 -4
v -7 28 -6
v -7 40 -6
v -6 28 -6
v -6 40 -6
v 9 28 -6
v 9 40 -6
v 10 28 -6
v 10 40 -6
v -6 28 -7
v -6 40 -7
v -5 28 -7
v -5 40 -7
v 8 28 -7
v 8 40 -7
v 9 28 -7
v 9 40 -7
v -5 28 -8
v -5 40 -8
v -4 28 -8
v -4 40 -8
v 7 28 -8
v 7 40 -8
v 8 28 -8
v 8 40 -8
v -4 28 -9
v -4 40 -9
v -2 28 -9
v -2 40 -9
v 5 28 -9
v 5 40 -9
v 7 28 -9
v 7 40 -9
v -2 28 -10
v -2 40 -10
v 5 28 -10
v 5 40 -10
v -2 28 9
v 5 28 9
v -4 28 8
v -2 28 8
v 5 28 8
v 7 28 8
v -5 28 7
v -4 28 7
v 7 28 7
v 8 28 7
v -6 28 6
v -5 28 6
v 8 28 6
v 9 28 6
v -7 28 5
v -6 28 5
v 9 28 5
v 10 28 5
v -8 28 3
v -7 28 3
v 10 28 3
v 11 28 3
v 1 28 -0
v 2 28 -0
v 1 28 -1
v 2 28 -1
v -8 28 -4
v -7 28 -4
v 10 28 -4
v 11 28 -4
v -7 28 -6
v -6 28 -6
v 9 28 -6
v 10 28 -6
v -6 28 -7
v -5 28 -7
v 8 28 -7
v 9 28 -7
v -5 28 -8
v -4 28 -8
v 7 28 -8
v 8 28 -8
v -4 28 -9
v -2 28 -9
v 5 28 -9
v 7 28 -9
v -2 28 -10
v 5 28 -10
v 12 39 4
v 13 39 4
v 17 39 4
v 18 39 4
v 18 39 3
v 19 39 3
v 13 39 2
v 14 39 2
v 16 39 2
v 17 39 2
v 18 39 2
v 11 39 1
v 12 39 1
v 13 39 1
v 1 39 -0
v 2 39 -0
v 18 39 -0
v 19 39 -0
v 20 39 -0
v 1 39 -1
v 2 39 -1
v 11 39 -1
v 12 39 -1
v 13 39 -1
v 14 39 -1
v 16 39 -1
v 17 39 -1
v 15 39 -3
v 16 39 -3
v 14 39 -4
v 15 39 -4
v 19 39 -4
v 20 39 -4
v 1 31 -0
v 2 31 -0
v 1 31 -1
v 2 31 -1
v -2 40 9
v 5 40 9
v -4 40 8
v -2 40 8
v 5 40 8
v 7 40 8
v -5 40 7
v -4 40 7
v 7 40 7
v 8 40 7
v -6 40 6
v -5 40 6
v 8 40 6
v 9 40 6
v -7 40 5
v -6 40 5
v 9 40 5
v 10 40 5
v 12 40 4
v 13 40 4
v 17 40 4
v 18 40 4
v -8 40 3
v -7 40 3
v 10 40 3
v 11 40 3
v 18 40 3
v 19 40 3
v 13 40 2
v 14 40 2
v 16 40 2
v 17 40 2
v 18 40 2
v 11 40 1
v 12 40 1
v 13 40 1
v 1 40 -0
v 2 40 -0
v 18 40 -0
v 19 40 -0
v 20 40 -0
v 1 40 -1
v 2 40 -1
v 11 40 -1
v 12 40 -1
v 13 40 -1
v 14 40 -1
v 16 40 -1
v 17 40 -1
v 15 40 -3
v 16 40 -3
v -8 40 -4
v -7 40 -4
v 10 40 -4
v 11 40 -4
v 14 40 -4
v 15 40 -4
v 19 40 -4
v 20 40 -4
v -7 40 -6
v -6 40 -6
v 9 40 -6
v 10 40 -6
v -6 40 -7
v -5 40 -7
v 8 40 -7
v 9 40 -7
v -5 40 -8
v -4 40 -8
v 7 40 -8
v 8 40 -8
v -4 40 -9
v -2 40 -9
v 5 40 -9
v 7 40 -9
v -2 40 -10
v 5 40 -10

# faces
f 3/1/1 2/1/1 1/1/1
f 4/1/1 2/1/1 3/1/1
f 9/1/1 6/1/1 5/1/1
f 10/1/1 6/1/1 9/1/1
f 11/1/1 8/1/1 7/1/1
f 12/1/1 8/1/1 11/1/1
f 17/1/1 14/1/1 13/1/1
f 18/1/1 14/1/1 17/1/1
f 19/1/1 16/1/1 15/1/1
f 20/1/1 16/1/1 19/1/1
f 25/1/1 22/1/1 21/1/1
f 26/1/1 22/1/1 25/1/1
f 27/1/1 24/1/1 23/1/1
f 28/1/1 24/1/1 27/1/1
f 33/1/1 30/1/1 29/1/1
f 34/1/1 30/1/1 33/1/1
f 35/1/1 32/1/1 31/1/1
f 36/1/1 32/1/1 35/1/1
f 41/1/1 38/1/1 37/1/1
f 42/1/1 38/1/1 41/1/1
f 43/1/1 40/1/1 39/1/1
f 44/1/1 40/1/1 43/1/1
f 47/1/1 46/1/1 45/1/1
f 48/1/1 46/1/1 47/1/1
f 51/3/1 50/3/1 49/3/1
f 52/3/1 50/3/1 51/3/1
f 55/3/1 54/3/1 53/3/1
f 56/3/1 54/3/1 55/3/1
f 59/3/1 58/3/1 57/3/1
f 60/3/1 58/3/1 59/3/1
f 63/3/1 62/3/1 61/3/1
f 64/3/1 62/3/1 63/3/1
f 67/3/1 66/3/1 65/3/1
f 68/3/1 66/3/1 67/3/1
f 71/3/1 70/3/1 69/3/1
f 72/3/1 70/3/1 71/3/1
f 75/3/1 74/3/1 73/3/1
f 76/3/1 74/3/1 75/3/1
f 77/1/2 78/1/2 79/1/2
f 79/1/2 78/1/2 80/1/2
f 81/1/2 82/1/2 85/1/2
f 85/1/2 82/1/2 86/1/2
f 83/1/2 84/1/2 87/1/2
f 87/1/2 84/1/2 88/1/2
f 89/1/2 90/1/2 93/1/2
f 93/1/2 90/1/2 94/1/2
f 91/1/2 92/1/2 95/1/2
f 95/1/2 92/1/2 96/1/2
f 97/1/2 98/1/2 101/1/2
f 101/1/2 98/1/2 102/1/2
f 99/1/2 100/1/2 103/1/2
f 103/1/2 100/1/2 104/1/2
f 105/1/2 106/1/2 109/1/2
f 109/1/2 106/1/2 110/1/2
f 107/1/2 108/1/2 111/1/2
f 111/1/2 108/1/2 112/1/2
f 113/1/2 114/1/2 117/1/2
f 117/1/2 114/1/2 118/1/2
f 115/1/2 116/1/2 119/1/2
f 119/1/2 116/1/2 120/1/2
f 121/1/2 122/1/2 123/1/2
f 123/1/2 122/1/2 124/1/2
f 121/1/2 123/1/2 125/1/2
f 125/1/2 123/1/2 126/1/2
f 124/1/2 122/1/2 127/1/2
f 127/1/2 122/1/2 128/1/2
f 129/3/2 130/3/2 131/3/2
f 131/3/2 130/3/2 132/3/2
f 133/3/2 134/3/2 135/3/2
f 135/3/2 134/3/2 136/3/2
f 137/3/2 138/3/2 139/3/2
f 139/3/2 138/3/2 140/3/2
f 141/3/2 142/3/2 143/3/2
f 143/3/2 142/3/2 144/3/2
f 145/3/2 146/3/2 147/3/2
f 147/3/2 146/3/2 148/3/2
f 149/3/2 150/3/2 151/3/2
f 151/3/2 150/3/2 152/3/2
f 153/3/2 154/3/2 155/3/2
f 155/3/2 154/3/2 156/3/2
f 157/3/2 158/3/2 159/3/2
f 159/3/2 158/3/2 160/3/2
f 161/3/2 162/3/2 163/3/2
f 163/3/2 162/3/2 164/3/2
f 167/1/3 166/1/3 165/1/3
f 168/1/3 166/1/3 167/1/3
f 171/1/3 170/1/3 169/1/3
f 172/1/3 170/1/3 171/1/3
f 175/1/3 174/1/3 173/1/3
f 176/1/3 174/1/3 175/1/3
f 179/1/3 178/1/3 177/1/3
f 180/1/3 178/1/3 179/1/3
f 183/1/3 182/1/3 181/1/3
f 184/1/3 182/1/3 183/1/3
f 187/1/3 186/1/3 185/1/3
f 188/1/3 186/1/3 187/1/3
f 191/1/3 190/1/3 189/1/3
f 192/1/3 190/1/3 191/1/3
f 195/1/3 194/1/3 193/1/3
f 196/1/3 194/1/3 195/1/3
f 199/1/3 198/1/3 197/1/3
f 200/1/3 198/1/3 199/1/3
f 203/3/3 202/3/3 201/3/3
f 204/3/3 202/3/3 203/3/3
f 207/3/3 206/3/3 205/3/3
f 208/3/3 206/3/3 207/3/3
f 211/1/3 210/1/3 209/1/3
f 212/1/3 210/1/3 211/1/3
f 215/1/3 214/1/3 213/1/3
f 216/1/3 214/1/3 215/1/3
f 219/3/3 218/3/3 217/3/3
f 220/3/3 218/3/3 219/3/3
f 223/3/3 222/3/3 221/3/3
f 224/3/3 222/3/3 223/3/3
f 227/3/3 226/3/3 225/3/3
f 228/3/3 226/3/3 227/3/3
f 231/3/3 230/3/3 229/3/3
f 232/3/3 230/3/3 231/3/3
f 235/3/3 234/3/3 233/3/3
f 236/3/3 234/3/3 235/3/3
f 239/1/3 238/1/3 237/1/3
f 240/1/3 238/1/3 239/1/3
f 243/3/3 242/3/3 241/3/3
f 244/3/3 242/3/3 243/3/3
f 245/3/4 246/3/4 247/3/4
f 247/3/4 246/3/4 248/3/4
f 249/3/4 250/3/4 251/3/4
f 251/3/4 250/3/4 252/3/4
f 253/1/4 254/1/4 255/1/4
f 255/1/4 254/1/4 256/1/4
f 257/3/4 258/3/4 259/3/4
f 259/3/4 258/3/4 260/3/4
f 261/3/4 262/3/4 263/3/4
f 263/3/4 262/3/4 264/3/4
f 265/3/4 266/3/4 267/3/4
f 267/3/4 266/3/4 268/3/4
f 269/3/4 270/3/4 271/3/4
f 271/3/4 270/3/4 272/3/4
f 273/3/4 274/3/4 275/3/4
f 275/3/4 274/3/4 276/3/4
f 277/1/4 278/1/4 279/1/4
f 279/1/4 278/1/4 280/1/4
f 281/1/4 282/1/4 283/1/4
f 283/1/4 282/1/4 284/1/4
f 285/3/4 286/3/4 287/3/4
f 287/3/4 286/3/4 288/3/4
f 289/3/4 290/3/4 291/3/4
f 291/3/4 290/3/4 292/3/4
f 293/1/4 294/1/4 295/1/4
f 295/1/4 294/1/4 296/1/4
f 297/1/4 298/1/4 299/1/4
f 299/1/4 298/1/4 300/1/4
f 301/1/4 302/1/4 303/1/4
f 303/1/4 302/1/4 304/1/4
f 305/1/4 306/1/4 307/1/4
f 307/1/4 306/1/4 308/1/4
f 309/1/4 310/1/4 311/1/4
f 311/1/4 310/1/4 312/1/4
f 313/1/4 314/1/4 315/1/4
f 315/1/4 314/1/4 316/1/4
f 317/1/4 318/1/4 319/1/4
f 319/1/4 318/1/4 320/1/4
f 321/1/4 322/1/4 323/1/4
f 323/1/4 322/1/4 324/1/4
f 325/1/4 326/1/4 327/1/4
f 327/1/4 326/1/4 328/1/4
f 332/1/5 330/1/5 329/1/5
f 333/1/5 330/1/5 332/1/5
f 336/1/5 332/1/5 331/1/5
f 336/1/5 334/1/5 333/1/5
f 336/1/5 333/1/5 332/1/5
f 337/1/5 334/1/5 336/1/5
f 340/1/5 336/1/5 335/1/5
f 340/1/5 338/1/5 337/1/5
f 340/1/5 337/1/5 336/1/5
f 341/1/5 338/1/5 340/1/5
f 344/1/5 340/1/5 339/1/5
f 344/1/5 342/1/5 341/1/5
f 344/1/5 341/1/5 340/1/5
f 345/1/5 342/1/5 344/1/5
f 348/1/5 344/1/5 343/1/5
f 348/1/5 346/1/5 345/1/5
f 348/1/5 345/1/5 344/1/5
f 349/1/5 346/1/5 348/1/5
f 351/1/5 348/1/5 347/1/5
f 351/1/5 350/1/5 349/1/5
f 351/1/5 349/1/5 348/1/5
f 352/1/5 350/1/5 351/1/5
f 353/1/5 351/1/5 347/1/5
f 353/2/5 352/2/5 351/2/5
f 354/1/5 350/1/5 352/1/5
f 354/2/5 352/2/5 353/2/5
f 355/1/5 353/1/5 347/1/5
f 355/1/5 354/1/5 353/1/5
f 356/1/5 354/1/5 355/1/5
f 357/1/5 350/1/5 354/1/5
f 357/1/5 354/1/5 356/1/5
f 358/1/5 350/1/5 357/1/5
f 359/1/5 357/1/5 356/1/5
f 360/1/5 357/1/5 359/1/5
f 361/1/5 357/1/5 360/1/5
f 362/1/5 357/1/5 361/1/5
f 363/1/5 361/1/5 360/1/5
f 364/1/5 361/1/5 363/1/5
f 365/1/5 361/1/5 364/1/5
f 366/1/5 361/1/5 365/1/5
f 367/1/5 365/1/5 364/1/5
f 368/1/5 365/1/5 367/1/5
f 369/1/5 365/1/5 368/1/5
f 370/1/5 365/1/5 369/1/5
f 371/1/5 369/1/5 368/1/5
f 372/1/5 369/1/5 371/1/5
f 373/1/5 369/1/5 372/1/5
f 374/1/5 369/1/5 373/1/5
f 375/1/5 373/1/5 372/1/5
f 376/1/5 373/1/5 375/1/5
f 381/3/5 380/3/5 379/3/5
f 383/3/5 378/3/5 377/3/5
f 386/3/5 382/3/5 381/3/5
f 386/3/5 381/3/5 379/3/5
f 387/3/5 382/3/5 386/3/5
f 389/3/5 384/3/5 383/3/5
f 389/3/5 383/3/5 377/3/5
f 390/3/5 384/3/5 389/3/5
f 393/3/5 382/3/5 387/3/5
f 394/3/5 382/3/5 393/3/5
f 396/2/5 392/2/5 391/2/5
f 397/2/5 392/2/5 396/2/5
f 398/3/5 389/3/5 388/3/5
f 399/3/5 389/3/5 398/3/5
f 400/3/5 384/3/5 390/3/5
f 401/3/5 384/3/5 400/3/5
f 402/3/5 386/3/5 385/3/5
f 403/3/5 386/3/5 402/3/5
f 404/3/5 402/3/5 401/3/5
f 405/3/5 402/3/5 404/3/5
f 406/3/5 404/3/5 401/3/5
f 407/3/5 404/3/5 406/3/5
f 408/3/5 395/3/5 394/3/5
f 409/3/5 395/3/5 408/3/5
f 410/2/6 411/2/6 412/2/6
f 412/2/6 411/2/6 413/2/6
f 414/1/6 415/1/6 417/1/6
f 417/1/6 415/1/6 418/1/6
f 416/1/6 417/1/6 421/1/6
f 418/1/6 419/1/6 421/1/6
f 417/1/6 418/1/6 421/1/6
f 421/1/6 419/1/6 422/1/6
f 420/1/6 421/1/6 425/1/6
f 422/1/6 423/1/6 425/1/6
f 421/1/6 422/1/6 425/1/6
f 425/1/6 423/1/6 426/1/6
f 424/1/6 425/1/6 429/1/6
f 426/1/6 427/1/6 429/1/6
f 425/1/6 426/1/6 429/1/6
f 429/1/6 427/1/6 430/1/6
f 428/1/6 429/1/6 437/1/6
f 429/1/6 430/1/6 437/1/6
f 430/1/6 431/1/6 437/1/6
f 437/1/6 431/1/6 438/1/6
f 434/3/6 435/3/6 440/3/6
f 432/3/6 433/3/6 442/3/6
f 440/3/6 441/3/6 445/3/6
f 434/3/6 440/3/6 445/3/6
f 445/3/6 441/3/6 446/3/6
f 438/1/6 439/1/6 447/1/6
f 436/1/6 437/1/6 447/1/6
f 437/1/6 438/1/6 447/1/6
f 442/3/6 443/3/6 448/3/6
f 432/3/6 442/3/6 448/3/6
f 448/3/6 443/3/6 449/3/6
f 436/1/6 447/1/6 450/1/6
f 450/1/6 447/1/6 451/1/6
f 446/3/6 441/3/6 452/3/6
f 452/3/6 441/3/6 453/3/6
f 436/1/6 450/1/6 455/1/6
f 450/2/6 451/2/6 455/2/6
f 451/1/6 447/1/6 456/1/6
f 455/2/6 451/2/6 456/2/6
f 447/3/6 448/3/6 457/3/6
f 456/1/6 447/1/6 457/1/6
f 457/3/6 448/3/6 458/3/6
f 449/3/6 443/3/6 459/3/6
f 459/3/6 443/3/6 460/3/6
f 444/3/6 445/3/6 461/3/6
f 461/3/6 445/3/6 462/3/6
f 460/3/6 461/3/6 463/3/6
f 463/3/6 461/3/6 464/3/6
f 436/1/6 455/1/6 465/1/6
f 455/1/6 456/1/6 465/1/6
f 456/1/6 457/1/6 465/1/6
f 465/1/6 457/1/6 466/1/6
f 466/1/6 457/1/6 467/1/6
f 467/1/6 457/1/6 468/1/6
f 460/3/6 463/3/6 469/3/6
f 469/3/6 463/3/6 470/3/6
f 453/3/6 454/3/6 471/3/6
f 471/3/6 454/3/6 472/3/6
f 466/1/6 467/1/6 473/1/6
f 473/1/6 467/1/6 474/1/6
f 474/1/6 467/1/6 475/1/6
f 475/1/6 467/1/6 476/1/6
f 474/1/6 475/1/6 477/1/6
f 477/1/6 475/1/6 478/1/6
f 478/1/6 475/1/6 479/1/6
f 479/1/6 475/1/6 480/1/6
f 478/1/6 479/1/6 481/1/6
f 481/1/6 479/1/6 482/1/6
f 482/1/6 479/1/6 483/1/6
f 483/1/6 479/1/6 484/1/6
f 482/1/6 483/1/6 485/1/6
f 485/1/6 483/1/6 486/1/6
f 486/1/6 483/1/6 487/1/6
f 487/1/6 483/1/6 488/1/6
f 486/1/6 487/1/6 489/1/6
f 489/1/6 487/1/6 490/1/6
